<mxfile host="app.diagrams.net" modified="2021-09-24T13:41:35.703Z" agent="5.0 (Macintosh; Intel Mac OS X 10_15_7) AppleWebKit/537.36 (KHTML, like Gecko) Chrome/93.0.4577.82 Safari/537.36" etag="mqbDUiMIvr9JAhiiRZWA" version="15.0.6" type="github">
  <diagram id="4QQ8OoEB9bRONTMcxU4o" name="Page-1">
    <mxGraphModel dx="1186" dy="796" grid="1" gridSize="10" guides="1" tooltips="1" connect="1" arrows="1" fold="1" page="1" pageScale="1" pageWidth="850" pageHeight="1100" math="0" shadow="0">
      <root>
        <mxCell id="0" />
        <mxCell id="1" parent="0" />
        <mxCell id="VQ8csryoK-aDlKXQJHOt-1" value="&lt;b&gt;Feature 4&lt;/b&gt;&lt;br&gt;(Business)" style="rounded=0;whiteSpace=wrap;html=1;fillColor=#f8cecc;strokeColor=#b85450;" vertex="1" parent="1">
          <mxGeometry x="360" y="420" width="120" height="60" as="geometry" />
        </mxCell>
        <mxCell id="VQ8csryoK-aDlKXQJHOt-2" value="&lt;b&gt;Service GRPC&lt;/b&gt;&lt;br&gt;(Ingress)" style="rounded=0;whiteSpace=wrap;html=1;fillColor=#d5e8d4;strokeColor=#82b366;" vertex="1" parent="1">
          <mxGeometry x="80" y="420" width="120" height="60" as="geometry" />
        </mxCell>
        <mxCell id="VQ8csryoK-aDlKXQJHOt-3" value="&lt;b&gt;Repository GRPC&lt;/b&gt;&lt;br&gt;(egress)" style="rounded=0;whiteSpace=wrap;html=1;fillColor=#dae8fc;strokeColor=#6c8ebf;" vertex="1" parent="1">
          <mxGeometry x="640" y="420" width="120" height="60" as="geometry" />
        </mxCell>
        <mxCell id="VQ8csryoK-aDlKXQJHOt-4" value="&lt;b&gt;Feature 5&lt;/b&gt;&lt;br&gt;(Business)" style="rounded=0;whiteSpace=wrap;html=1;fillColor=#f8cecc;strokeColor=#b85450;" vertex="1" parent="1">
          <mxGeometry x="360" y="480" width="120" height="60" as="geometry" />
        </mxCell>
        <mxCell id="VQ8csryoK-aDlKXQJHOt-5" value="&lt;b&gt;Service REST&lt;/b&gt;&lt;br&gt;(Ingress)" style="rounded=0;whiteSpace=wrap;html=1;fillColor=#d5e8d4;strokeColor=#82b366;" vertex="1" parent="1">
          <mxGeometry x="80" y="480" width="120" height="60" as="geometry" />
        </mxCell>
        <mxCell id="VQ8csryoK-aDlKXQJHOt-6" value="&lt;b&gt;Repository REST&lt;/b&gt;&lt;br&gt;(egress)" style="rounded=0;whiteSpace=wrap;html=1;fillColor=#dae8fc;strokeColor=#6c8ebf;" vertex="1" parent="1">
          <mxGeometry x="640" y="480" width="120" height="60" as="geometry" />
        </mxCell>
        <mxCell id="VQ8csryoK-aDlKXQJHOt-7" value="&lt;b&gt;Feature 6&lt;/b&gt;&lt;br&gt;(Business)" style="rounded=0;whiteSpace=wrap;html=1;fillColor=#f8cecc;strokeColor=#b85450;" vertex="1" parent="1">
          <mxGeometry x="360" y="540" width="120" height="60" as="geometry" />
        </mxCell>
        <mxCell id="VQ8csryoK-aDlKXQJHOt-8" value="&lt;b&gt;Service CLI&lt;/b&gt;&lt;br&gt;(Ingress)" style="rounded=0;whiteSpace=wrap;html=1;fillColor=#d5e8d4;strokeColor=#82b366;" vertex="1" parent="1">
          <mxGeometry x="80" y="540" width="120" height="60" as="geometry" />
        </mxCell>
        <mxCell id="VQ8csryoK-aDlKXQJHOt-9" value="&lt;b&gt;Repository SQL&lt;/b&gt;&lt;br&gt;(egress)" style="rounded=0;whiteSpace=wrap;html=1;fillColor=#dae8fc;strokeColor=#6c8ebf;" vertex="1" parent="1">
          <mxGeometry x="640" y="540" width="120" height="60" as="geometry" />
        </mxCell>
        <mxCell id="VQ8csryoK-aDlKXQJHOt-18" value="&lt;b&gt;Repository Redis&lt;/b&gt;&lt;br&gt;(egress)" style="rounded=0;whiteSpace=wrap;html=1;fillColor=#dae8fc;strokeColor=#6c8ebf;" vertex="1" parent="1">
          <mxGeometry x="640" y="600" width="120" height="60" as="geometry" />
        </mxCell>
        <mxCell id="VQ8csryoK-aDlKXQJHOt-26" value="" style="html=1;shadow=0;dashed=0;align=center;verticalAlign=middle;shape=mxgraph.arrows2.uTurnArrow;dy=11;arrowHead=43;dx2=25;fillColor=#fff2cc;strokeWidth=1;direction=west;strokeColor=#d6b656;" vertex="1" parent="1">
          <mxGeometry x="230" y="460" width="100" height="100" as="geometry" />
        </mxCell>
        <mxCell id="VQ8csryoK-aDlKXQJHOt-27" value="" style="html=1;shadow=0;dashed=0;align=center;verticalAlign=middle;shape=mxgraph.arrows2.uTurnArrow;dy=11;arrowHead=43;dx2=25;fillColor=#e1d5e7;strokeWidth=1;direction=west;strokeColor=#9673a6;" vertex="1" parent="1">
          <mxGeometry x="510" y="460" width="100" height="100" as="geometry" />
        </mxCell>
        <mxCell id="VQ8csryoK-aDlKXQJHOt-28" value="&lt;b&gt;Repository File&lt;/b&gt;&lt;br&gt;(egress)" style="rounded=0;whiteSpace=wrap;html=1;fillColor=#dae8fc;strokeColor=#6c8ebf;" vertex="1" parent="1">
          <mxGeometry x="640" y="360" width="120" height="60" as="geometry" />
        </mxCell>
        <mxCell id="VQ8csryoK-aDlKXQJHOt-31" value="&lt;b&gt;Feature 3&lt;/b&gt;&lt;br&gt;(Business)" style="rounded=0;whiteSpace=wrap;html=1;fillColor=#f8cecc;strokeColor=#b85450;" vertex="1" parent="1">
          <mxGeometry x="360" y="360" width="120" height="60" as="geometry" />
        </mxCell>
        <mxCell id="VQ8csryoK-aDlKXQJHOt-32" value="&lt;b&gt;Feature 7&lt;/b&gt;&lt;br&gt;(Business)" style="rounded=0;whiteSpace=wrap;html=1;fillColor=#f8cecc;strokeColor=#b85450;" vertex="1" parent="1">
          <mxGeometry x="360" y="600" width="120" height="60" as="geometry" />
        </mxCell>
        <mxCell id="VQ8csryoK-aDlKXQJHOt-33" value="&lt;b&gt;Feature 2&lt;/b&gt;&lt;br&gt;(Business)" style="rounded=0;whiteSpace=wrap;html=1;fillColor=#f8cecc;strokeColor=#b85450;" vertex="1" parent="1">
          <mxGeometry x="360" y="300" width="120" height="60" as="geometry" />
        </mxCell>
        <mxCell id="VQ8csryoK-aDlKXQJHOt-34" value="&lt;b&gt;Feature 8&lt;/b&gt;&lt;br&gt;(Business)" style="rounded=0;whiteSpace=wrap;html=1;fillColor=#f8cecc;strokeColor=#b85450;" vertex="1" parent="1">
          <mxGeometry x="360" y="660" width="120" height="60" as="geometry" />
        </mxCell>
        <mxCell id="VQ8csryoK-aDlKXQJHOt-35" value="&lt;b&gt;Feature 9&lt;/b&gt;&lt;br&gt;(Business)" style="rounded=0;whiteSpace=wrap;html=1;fillColor=#f8cecc;strokeColor=#b85450;" vertex="1" parent="1">
          <mxGeometry x="360" y="720" width="120" height="60" as="geometry" />
        </mxCell>
        <mxCell id="VQ8csryoK-aDlKXQJHOt-37" value="&lt;b&gt;Feature 1&lt;/b&gt;&lt;br&gt;(Business)" style="rounded=0;whiteSpace=wrap;html=1;fillColor=#f8cecc;strokeColor=#b85450;" vertex="1" parent="1">
          <mxGeometry x="360" y="240" width="120" height="60" as="geometry" />
        </mxCell>
        <mxCell id="VQ8csryoK-aDlKXQJHOt-38" value="&lt;b&gt;REST ↔️BSS&lt;/b&gt;" style="rounded=0;whiteSpace=wrap;html=1;fillColor=#b0e3e6;strokeColor=#0e8088;" vertex="1" parent="1">
          <mxGeometry x="1040" y="480" width="160" height="30" as="geometry" />
        </mxCell>
        <mxCell id="VQ8csryoK-aDlKXQJHOt-39" value="&lt;b&gt;REST&amp;nbsp;&lt;/b&gt;&lt;b&gt;↔️&lt;/b&gt;&lt;b&gt;Xendit&lt;/b&gt;" style="rounded=0;whiteSpace=wrap;html=1;fillColor=#b0e3e6;strokeColor=#0e8088;" vertex="1" parent="1">
          <mxGeometry x="1040" y="510" width="160" height="30" as="geometry" />
        </mxCell>
        <mxCell id="VQ8csryoK-aDlKXQJHOt-40" value="&lt;b&gt;GRPC&amp;nbsp;&lt;/b&gt;&lt;b&gt;↔️&lt;/b&gt;&lt;b&gt;KW / User&lt;/b&gt;" style="rounded=0;whiteSpace=wrap;html=1;fillColor=#b0e3e6;strokeColor=#0e8088;" vertex="1" parent="1">
          <mxGeometry x="1000" y="360" width="160" height="30" as="geometry" />
        </mxCell>
        <mxCell id="VQ8csryoK-aDlKXQJHOt-43" value="&lt;b&gt;SQL&amp;nbsp;&lt;/b&gt;&lt;b&gt;↔️&lt;/b&gt;&lt;b&gt;Primary&lt;/b&gt;" style="rounded=0;whiteSpace=wrap;html=1;fillColor=#b0e3e6;strokeColor=#0e8088;" vertex="1" parent="1">
          <mxGeometry x="1000" y="600" width="160" height="30" as="geometry" />
        </mxCell>
        <mxCell id="VQ8csryoK-aDlKXQJHOt-44" value="&lt;b&gt;GRPC&amp;nbsp;&lt;/b&gt;&lt;b&gt;↔️&lt;/b&gt;&lt;b&gt;KW / Activity&lt;/b&gt;" style="rounded=0;whiteSpace=wrap;html=1;fillColor=#b0e3e6;strokeColor=#0e8088;" vertex="1" parent="1">
          <mxGeometry x="1000" y="390" width="160" height="30" as="geometry" />
        </mxCell>
        <mxCell id="VQ8csryoK-aDlKXQJHOt-45" value="&lt;b&gt;Redis&amp;nbsp;&lt;/b&gt;&lt;b&gt;↔️&lt;/b&gt;&lt;b&gt;Primary&lt;/b&gt;" style="rounded=0;whiteSpace=wrap;html=1;fillColor=#b0e3e6;strokeColor=#0e8088;" vertex="1" parent="1">
          <mxGeometry x="960" y="720" width="160" height="30" as="geometry" />
        </mxCell>
        <mxCell id="VQ8csryoK-aDlKXQJHOt-46" value="&lt;b&gt;SQL&amp;nbsp;&lt;/b&gt;&lt;b&gt;↔️&lt;/b&gt;&lt;b&gt;Secondary&lt;/b&gt;" style="rounded=0;whiteSpace=wrap;html=1;fillColor=#b0e3e6;strokeColor=#0e8088;" vertex="1" parent="1">
          <mxGeometry x="1000" y="630" width="160" height="30" as="geometry" />
        </mxCell>
        <mxCell id="VQ8csryoK-aDlKXQJHOt-47" value="&lt;b&gt;Redis&amp;nbsp;&lt;/b&gt;&lt;b&gt;↔️&lt;/b&gt;&lt;b&gt;Secondary&lt;/b&gt;" style="rounded=0;whiteSpace=wrap;html=1;fillColor=#b0e3e6;strokeColor=#0e8088;" vertex="1" parent="1">
          <mxGeometry x="960" y="750" width="160" height="30" as="geometry" />
        </mxCell>
        <mxCell id="VQ8csryoK-aDlKXQJHOt-48" value="&lt;b&gt;GRPC&amp;nbsp;&lt;/b&gt;&lt;b&gt;↔️&lt;/b&gt;&lt;b&gt;KW / Finance&lt;/b&gt;" style="rounded=0;whiteSpace=wrap;html=1;fillColor=#b0e3e6;strokeColor=#0e8088;" vertex="1" parent="1">
          <mxGeometry x="1160" y="360" width="160" height="30" as="geometry" />
        </mxCell>
        <mxCell id="VQ8csryoK-aDlKXQJHOt-49" value="&lt;b&gt;GRPC&amp;nbsp;&lt;/b&gt;&lt;b&gt;↔️&lt;/b&gt;&lt;b&gt;KW / Notification&lt;/b&gt;" style="rounded=0;whiteSpace=wrap;html=1;fillColor=#b0e3e6;strokeColor=#0e8088;" vertex="1" parent="1">
          <mxGeometry x="1160" y="390" width="160" height="30" as="geometry" />
        </mxCell>
        <mxCell id="VQ8csryoK-aDlKXQJHOt-52" value="" style="shape=flexArrow;endArrow=classic;startArrow=classic;html=1;strokeWidth=1;entryX=0;entryY=1;entryDx=0;entryDy=0;exitX=1;exitY=0.5;exitDx=0;exitDy=0;fillColor=#bac8d3;strokeColor=#23445d;" edge="1" parent="1" source="VQ8csryoK-aDlKXQJHOt-3" target="VQ8csryoK-aDlKXQJHOt-40">
          <mxGeometry width="100" height="100" relative="1" as="geometry">
            <mxPoint x="710" y="590" as="sourcePoint" />
            <mxPoint x="810" y="490" as="targetPoint" />
          </mxGeometry>
        </mxCell>
        <mxCell id="VQ8csryoK-aDlKXQJHOt-53" value="" style="shape=flexArrow;endArrow=classic;startArrow=classic;html=1;strokeWidth=1;entryX=0;entryY=0;entryDx=0;entryDy=0;exitX=1;exitY=0.5;exitDx=0;exitDy=0;fillColor=#bac8d3;strokeColor=#23445d;" edge="1" parent="1" source="VQ8csryoK-aDlKXQJHOt-6" target="VQ8csryoK-aDlKXQJHOt-39">
          <mxGeometry width="100" height="100" relative="1" as="geometry">
            <mxPoint x="770" y="460" as="sourcePoint" />
            <mxPoint x="1010" y="400" as="targetPoint" />
          </mxGeometry>
        </mxCell>
        <mxCell id="VQ8csryoK-aDlKXQJHOt-54" value="" style="shape=flexArrow;endArrow=classic;startArrow=classic;html=1;strokeWidth=1;entryX=0;entryY=0;entryDx=0;entryDy=0;exitX=1;exitY=0.5;exitDx=0;exitDy=0;fillColor=#bac8d3;strokeColor=#23445d;" edge="1" parent="1" source="VQ8csryoK-aDlKXQJHOt-9" target="VQ8csryoK-aDlKXQJHOt-46">
          <mxGeometry width="100" height="100" relative="1" as="geometry">
            <mxPoint x="770" y="520" as="sourcePoint" />
            <mxPoint x="1010" y="520" as="targetPoint" />
          </mxGeometry>
        </mxCell>
        <mxCell id="VQ8csryoK-aDlKXQJHOt-55" value="" style="shape=flexArrow;endArrow=classic;startArrow=classic;html=1;strokeWidth=1;entryX=0;entryY=1;entryDx=0;entryDy=0;exitX=1;exitY=0.5;exitDx=0;exitDy=0;fillColor=#bac8d3;strokeColor=#23445d;" edge="1" parent="1" source="VQ8csryoK-aDlKXQJHOt-18" target="VQ8csryoK-aDlKXQJHOt-45">
          <mxGeometry width="100" height="100" relative="1" as="geometry">
            <mxPoint x="770" y="580" as="sourcePoint" />
            <mxPoint x="1010" y="640" as="targetPoint" />
          </mxGeometry>
        </mxCell>
        <mxCell id="VQ8csryoK-aDlKXQJHOt-56" value="&lt;b&gt;File&amp;nbsp;&lt;/b&gt;&lt;b&gt;↔️&lt;/b&gt;&lt;b&gt;Local&lt;/b&gt;" style="rounded=0;whiteSpace=wrap;html=1;fillColor=#b0e3e6;strokeColor=#0e8088;" vertex="1" parent="1">
          <mxGeometry x="960" y="270" width="160" height="30" as="geometry" />
        </mxCell>
        <mxCell id="VQ8csryoK-aDlKXQJHOt-57" value="&lt;b&gt;File&amp;nbsp;&lt;/b&gt;&lt;b&gt;↔️&lt;/b&gt;&lt;b&gt;S3&lt;/b&gt;" style="rounded=0;whiteSpace=wrap;html=1;fillColor=#b0e3e6;strokeColor=#0e8088;" vertex="1" parent="1">
          <mxGeometry x="960" y="240" width="160" height="30" as="geometry" />
        </mxCell>
        <mxCell id="VQ8csryoK-aDlKXQJHOt-58" value="" style="shape=flexArrow;endArrow=classic;startArrow=classic;html=1;strokeWidth=1;entryX=0;entryY=0;entryDx=0;entryDy=0;exitX=1;exitY=0.5;exitDx=0;exitDy=0;fillColor=#bac8d3;strokeColor=#23445d;" edge="1" parent="1" source="VQ8csryoK-aDlKXQJHOt-28" target="VQ8csryoK-aDlKXQJHOt-56">
          <mxGeometry width="100" height="100" relative="1" as="geometry">
            <mxPoint x="770" y="460" as="sourcePoint" />
            <mxPoint x="1010" y="400" as="targetPoint" />
          </mxGeometry>
        </mxCell>
        <mxCell id="VQ8csryoK-aDlKXQJHOt-59" value="Repository Interfaces" style="swimlane;strokeWidth=1;fillColor=#dae8fc;strokeColor=#6c8ebf;" vertex="1" parent="1">
          <mxGeometry x="620" y="320" width="160" height="360" as="geometry">
            <mxRectangle x="620" y="320" width="160" height="23" as="alternateBounds" />
          </mxGeometry>
        </mxCell>
        <mxCell id="VQ8csryoK-aDlKXQJHOt-66" value="Feature Interfaces" style="swimlane;strokeWidth=1;fillColor=#f8cecc;strokeColor=#b85450;" vertex="1" parent="1">
          <mxGeometry x="340" y="200" width="160" height="600" as="geometry">
            <mxRectangle x="620" y="320" width="160" height="23" as="alternateBounds" />
          </mxGeometry>
        </mxCell>
        <mxCell id="VQ8csryoK-aDlKXQJHOt-67" value="Service Interfaces" style="swimlane;strokeWidth=1;fillColor=#d5e8d4;strokeColor=#82b366;" vertex="1" parent="1">
          <mxGeometry x="60" y="380" width="160" height="240" as="geometry">
            <mxRectangle x="620" y="320" width="160" height="23" as="alternateBounds" />
          </mxGeometry>
        </mxCell>
      </root>
    </mxGraphModel>
  </diagram>
</mxfile>
